<svg width="190" height="42" viewBox="0 0 190 42" fill="none" xmlns="http://www.w3.org/2000/svg">
<path d="M27.79 0C27.8794 0.0766909 27.9669 0.152519 28.0469 0.2366C28.0733 0.264238 28.0733 0.264238 28.1002 0.292435C28.1186 0.311841 28.1369 0.331247 28.1558 0.351241C28.1753 0.371661 28.1947 0.392082 28.2147 0.413121C28.346 0.551753 28.4749 0.691897 28.6024 0.833183C28.7173 0.959985 28.8355 1.08422 28.9545 1.20813C29.1022 1.36196 29.2471 1.51724 29.3893 1.67486C29.5041 1.80164 29.6223 1.92586 29.7413 2.04975C29.8927 2.20744 30.0413 2.36664 30.1873 2.52806C30.2944 2.64634 30.4038 2.76283 30.5143 2.87875C30.736 3.11133 30.9567 3.34453 31.1713 3.58198C31.3004 3.72478 31.4328 3.865 31.5667 4.00448C31.7151 4.15905 31.8608 4.315 32.0039 4.47324C32.18 4.66773 32.3614 4.85853 32.5423 5.04972C32.7556 5.27513 32.9679 5.50105 33.1756 5.73028C33.2833 5.84894 33.3932 5.96593 33.5042 6.08234C33.744 6.33391 33.9816 6.58678 34.2142 6.84335C34.3219 6.96203 34.4318 7.07903 34.5428 7.19545C34.7645 7.42803 34.9852 7.66123 35.1998 7.89867C35.3289 8.04148 35.4613 8.1817 35.5952 8.32118C35.7435 8.47574 35.8893 8.6317 36.0324 8.78994C36.2085 8.98443 36.3899 9.17523 36.5708 9.36642C36.7841 9.59183 36.9964 9.81775 37.2041 10.047C37.3118 10.1656 37.4217 10.2826 37.5327 10.399C37.7725 10.6506 38.0101 10.9035 38.2427 11.1601C38.3504 11.2787 38.4603 11.3957 38.5713 11.5121C38.793 11.7447 39.0137 11.9779 39.2283 12.2154C39.3756 12.3783 39.5275 12.5377 39.6802 12.6968C39.7978 12.8195 39.9133 12.9434 40.0269 13.0689C40.1874 13.2459 40.1874 13.2459 40.3495 13.4218C40.3719 13.4461 40.3944 13.4704 40.4175 13.4954C40.4359 13.5126 40.4544 13.5297 40.4734 13.5474C40.4942 13.5474 40.515 13.5474 40.5364 13.5474C40.5894 13.4941 40.6388 13.4405 40.6878 13.3845C40.7191 13.3494 40.7505 13.3143 40.7819 13.2793C40.7983 13.2609 40.8148 13.2425 40.8317 13.2235C40.9152 13.1312 41.0012 13.0407 41.0871 12.9501C41.2146 12.8154 41.3407 12.6799 41.4648 12.5429C41.6059 12.387 41.7499 12.2334 41.8949 12.0803C42.0047 11.9639 42.1131 11.8467 42.2202 11.7284C42.3612 11.5725 42.5053 11.419 42.6502 11.2658C42.7601 11.1494 42.8684 11.0322 42.9755 10.9139C43.1166 10.7581 43.2606 10.6045 43.4055 10.4513C43.5154 10.335 43.6238 10.2177 43.7308 10.0994C43.8718 9.9437 44.0158 9.79022 44.1606 9.63715C44.2732 9.5179 44.3842 9.39768 44.494 9.27649C44.6161 9.14186 44.74 9.00878 44.8658 8.87678C45.1025 8.6284 45.3374 8.37887 45.5668 8.12543C45.694 7.98522 45.8243 7.84722 45.9548 7.70927C46.0647 7.59292 46.1731 7.47567 46.2801 7.35739C46.4212 7.20155 46.5652 7.04797 46.7102 6.8948C46.82 6.77845 46.9284 6.6612 47.0355 6.54292C47.1765 6.38708 47.3206 6.2335 47.4655 6.08032C47.5754 5.96398 47.6837 5.84673 47.7908 5.72845C47.9319 5.57261 48.0759 5.41903 48.2208 5.26585C48.3307 5.14951 48.4391 5.03226 48.5461 4.91398C48.6872 4.75814 48.8313 4.60456 48.9762 4.45138C49.0861 4.33504 49.1944 4.21779 49.3015 4.0995C49.4425 3.94367 49.5866 3.79009 49.7315 3.63691C49.8414 3.52056 49.9498 3.40331 50.0568 3.28503C50.1979 3.12917 50.342 2.97557 50.4869 2.82238C50.5962 2.70667 50.7038 2.58998 50.8102 2.47226C50.9576 2.30924 51.1096 2.14975 51.2624 1.99054C51.3916 1.85565 51.518 1.71912 51.6426 1.58111C51.7522 1.46005 51.8641 1.34069 51.9767 1.22171C52.1041 1.08698 52.2303 0.951528 52.3543 0.814471C52.4819 0.673638 52.6112 0.534118 52.7418 0.395358C52.7667 0.368874 52.7667 0.368874 52.7921 0.341855C52.8743 0.254719 52.9573 0.168099 53.0412 0.0821895C53.0566 0.0664037 53.072 0.050618 53.0879 0.0343539C53.1003 0.0230171 53.1126 0.0116803 53.1254 0C53.1358 0 53.1462 0 53.1569 0C53.1576 2.29212 53.1577 4.58424 53.154 6.87636C53.154 6.89962 53.1539 6.92288 53.1539 6.94684C53.1529 7.52509 53.1519 8.10333 53.1509 8.68157C53.1502 9.06279 53.1496 9.44401 53.1489 9.82524C53.1489 9.86411 53.1489 9.86411 53.1488 9.90377C53.1486 10.0356 53.1484 10.1674 53.1481 10.2991C53.1466 11.2155 53.145 12.1319 53.1434 13.0482C53.1419 13.9345 53.1404 14.8208 53.1389 15.707C53.1388 15.7347 53.1388 15.7623 53.1387 15.7909C53.1382 16.0689 53.1378 16.3469 53.1373 16.6249C53.1363 17.1904 53.1354 17.756 53.1344 18.3215C53.1344 18.3475 53.1343 18.3734 53.1343 18.4002C53.132 19.7297 53.1297 21.0591 53.1274 22.3886C53.1274 22.4072 53.1273 22.4258 53.1273 22.4449C53.1267 22.8093 53.126 23.1738 53.1254 23.5382C51.8999 23.5382 50.6743 23.5382 49.4116 23.5382C49.4013 18.6465 49.3909 13.7548 49.3802 8.71484C49.2406 8.83524 49.1162 8.9461 48.9986 9.07966C48.9687 9.11302 48.9388 9.14635 48.9088 9.17966C48.8933 9.19688 48.8779 9.21409 48.8619 9.23183C48.7791 9.32297 48.6941 9.41251 48.6091 9.50216C48.4816 9.63688 48.3555 9.77234 48.2314 9.9094C48.0904 10.0652 47.9463 10.2188 47.8014 10.372C47.6915 10.4883 47.5831 10.6056 47.4761 10.7239C47.2684 10.9532 47.0547 11.1783 46.8414 11.4037C46.6487 11.6075 46.4572 11.8119 46.2695 12.0192C46.1423 12.1594 46.012 12.2974 45.8815 12.4353C45.7717 12.5517 45.6633 12.6689 45.5562 12.7872C45.4152 12.943 45.2711 13.0966 45.1262 13.2498C45.0163 13.3661 44.908 13.4834 44.8009 13.6017C44.6598 13.7575 44.5157 13.9111 44.3708 14.0643C44.2615 14.18 44.1539 14.2967 44.0475 14.4144C43.9002 14.5775 43.7482 14.7369 43.5953 14.8962C43.4661 15.031 43.3398 15.1676 43.2151 15.3056C43.1055 15.4267 42.9937 15.546 42.8811 15.665C42.7536 15.7997 42.6275 15.9352 42.5034 16.0722C42.3624 16.228 42.2185 16.3815 42.0736 16.5345C41.961 16.6538 41.85 16.774 41.7402 16.8952C41.6182 17.0298 41.4943 17.1629 41.3684 17.2949C41.2757 17.3922 41.1833 17.4898 41.0911 17.5875C41.0738 17.6058 41.0565 17.6241 41.0387 17.6429C40.9048 17.7851 40.7734 17.9289 40.6442 18.0744C40.5432 18.1869 40.5432 18.1869 40.4734 18.217C40.46 18.2024 40.4466 18.1879 40.4327 18.1729C40.3143 18.0448 40.1952 17.9173 40.0752 17.7904C39.9289 17.6356 39.7837 17.4803 39.6414 17.3228C39.494 17.1597 39.342 17.0002 39.1891 16.841C39.0605 16.7068 38.9351 16.5709 38.8112 16.4335C38.6963 16.3068 38.5781 16.1826 38.4592 16.0587C38.3115 15.9048 38.1665 15.7495 38.0243 15.5919C37.9095 15.4652 37.7913 15.3409 37.6724 15.217C37.521 15.0594 37.3723 14.9001 37.2263 14.7387C37.1192 14.6205 37.0098 14.504 36.8993 14.388C36.6777 14.1555 36.457 13.9223 36.2423 13.6848C36.0949 13.5218 35.9429 13.3623 35.79 13.203C35.6615 13.0689 35.536 12.9329 35.4121 12.7956C35.2973 12.6688 35.1791 12.5446 35.0601 12.4207C34.9124 12.2669 34.7675 12.1116 34.6253 11.954C34.5105 11.8272 34.3923 11.703 34.2733 11.5791C34.1219 11.4214 33.9733 11.2622 33.8273 11.1008C33.7202 10.9825 33.6108 10.866 33.5003 10.7501C33.2786 10.5175 33.0579 10.2843 32.8433 10.0468C32.6959 9.8838 32.5439 9.72428 32.391 9.56506C32.2625 9.43089 32.137 9.29496 32.0131 9.1576C31.8983 9.03083 31.7801 8.90661 31.6611 8.78271C31.5134 8.62889 31.3685 8.4736 31.2263 8.31598C31.1114 8.18921 30.9932 8.06499 30.8743 7.94109C30.7229 7.78341 30.5743 7.6242 30.4282 7.46279C30.3211 7.34451 30.2117 7.22802 30.1012 7.11209C29.8796 6.87951 29.6589 6.64632 29.4442 6.40887C29.297 6.24595 29.1451 6.08655 28.9923 5.92745C28.86 5.78929 28.7306 5.64935 28.6028 5.50806C28.518 5.41435 28.4321 5.32154 28.3447 5.22958C28.3236 5.20623 28.3026 5.18287 28.2809 5.15881C28.2194 5.09723 28.1685 5.05394 28.0968 5.00413C27.8823 4.84062 27.7774 4.67163 27.754 4.42404C27.7358 4.17005 27.7425 3.91523 27.7485 3.66099C27.7511 3.53204 27.7513 3.40309 27.7518 3.27413C27.753 3.03056 27.7564 2.78706 27.7605 2.54352C27.7651 2.26599 27.7673 1.98846 27.7694 1.71091C27.7736 1.14058 27.7808 0.570292 27.79 0Z" fill="black"/>
<path fill-rule="evenodd" clip-rule="evenodd" d="M146.705 1.13207C146.004 1.05881 145.296 1.05881 138.479 1.05881V23.4839C139.202 23.4839 139.94 23.4968 140.685 23.5097C145.034 23.5855 149.647 23.6658 153.204 21.2227L153.272 21.1763C153.479 21.0352 153.674 20.8895 153.861 20.7284L153.942 20.657L153.948 20.6523C154.309 20.3379 154.668 20.0255 154.979 19.6729C155.023 19.6227 155.067 19.5728 155.113 19.5234C157.173 16.7598 157.729 14.3498 157.68 11.9759L157.678 11.8913C157.622 9.4839 156.884 7.01637 155.176 5.07629L155.128 5.02257C154.965 4.83668 154.799 4.65553 154.617 4.48298L154.606 4.47235C154.542 4.41368 154.479 4.35512 154.418 4.29427C154.305 4.18004 154.187 4.07295 154.06 3.96968L153.994 3.91625C153.118 3.21141 152.155 2.60056 151.058 2.17689L150.974 2.14477C149.724 1.66296 148.434 1.33662 147.078 1.17448L146.957 1.16062C146.867 1.15004 146.786 1.14056 146.705 1.13207ZM146.46 4.65224C145.966 4.58819 145.462 4.58819 142.571 4.58819V19.9545C142.872 19.9545 143.175 19.9579 143.479 19.9613C145.037 19.9787 146.633 19.9965 148.122 19.5633C148.196 19.5413 148.27 19.5194 148.345 19.4983C149.072 19.2936 149.783 19.0083 150.397 18.6117C150.45 18.5773 150.502 18.5429 150.555 18.5093C151.018 18.2171 151.428 17.8607 151.784 17.4734L151.824 17.4297C152.948 16.2197 153.444 14.6288 153.575 13.1053C153.738 10.9664 153.325 8.57592 151.64 6.90752L151.572 6.84156C151.432 6.69596 151.284 6.56716 151.119 6.44185C151.066 6.40198 151.014 6.36164 150.963 6.32074C149.83 5.42081 148.405 4.95778 146.909 4.71951L146.795 4.70187C146.669 4.68209 146.565 4.66574 146.46 4.65224Z" fill="black"/>
<path d="M27.79 5.647C27.9672 5.79986 27.9672 5.79986 28.047 5.8836C28.0734 5.91124 28.0734 5.91124 28.1003 5.93943C28.1186 5.95884 28.137 5.97825 28.1559 5.99824C28.1753 6.01866 28.1947 6.03908 28.2147 6.06012C28.3461 6.19875 28.475 6.3389 28.6025 6.48018C28.7173 6.60698 28.8355 6.73122 28.9545 6.85513C29.1022 7.00896 29.2472 7.16424 29.3894 7.32186C29.5042 7.44864 29.6224 7.57285 29.7413 7.69675C29.8927 7.85444 30.0414 8.01364 30.1874 8.17505C30.2945 8.29334 30.4039 8.40983 30.5144 8.52575C30.736 8.75833 30.9567 8.99153 31.1714 9.22898C31.3005 9.37178 31.4329 9.512 31.5667 9.65148C31.7151 9.80604 31.8609 9.962 32.0039 10.1202C32.1801 10.3147 32.3615 10.5055 32.5424 10.6967C32.7557 10.9221 32.9679 11.148 33.1757 11.3773C33.2834 11.4959 33.3933 11.6129 33.5043 11.7293C33.744 11.9809 33.9817 12.2338 34.2143 12.4904C34.322 12.609 34.4319 12.726 34.5429 12.8424C34.7645 13.075 34.9852 13.3082 35.1999 13.5457C35.329 13.6885 35.4613 13.8287 35.5952 13.9682C35.7436 14.1227 35.8894 14.2787 36.0324 14.4369C36.2086 14.6314 36.39 14.8222 36.5709 15.0134C36.7842 15.2388 36.9964 15.4647 37.2042 15.694C37.3119 15.8126 37.4218 15.9296 37.5328 16.046C37.7725 16.2976 38.0102 16.5505 38.2427 16.8071C38.3505 16.9257 38.4604 17.0427 38.5714 17.1591C38.793 17.3917 39.0137 17.6249 39.2284 17.8624C39.3575 18.0052 39.4898 18.1454 39.6237 18.2849C39.799 18.4676 39.9745 18.6506 40.1393 18.8405C40.1926 18.8998 40.1926 18.8998 40.2667 18.9665C40.5175 19.2071 40.5494 19.3967 40.5407 19.7124C40.5406 19.7579 40.5407 19.8035 40.5408 19.849C40.5409 19.9715 40.5391 20.0939 40.5369 20.2164C40.5349 20.3448 40.5347 20.4732 40.5343 20.6017C40.5334 20.8443 40.5308 21.087 40.5276 21.3297C40.5241 21.6062 40.5224 21.8826 40.5208 22.1591C40.5175 22.7274 40.512 23.2957 40.505 23.864C40.3912 23.7673 40.2892 23.6679 40.1922 23.5586C40.0581 23.4093 39.9208 23.2628 39.7811 23.1174C39.6478 22.9786 39.5161 22.8389 39.3877 22.6966C39.2388 22.5316 39.0853 22.3701 38.9308 22.2089C38.8154 22.0885 38.7012 21.9674 38.5886 21.8451C38.5009 21.7506 38.4122 21.6569 38.3235 21.5631C38.1947 21.4267 38.0673 21.2896 37.9419 21.1508C37.7945 20.9878 37.6425 20.8282 37.4896 20.669C37.3611 20.5348 37.2356 20.3989 37.1117 20.2616C36.9969 20.1348 36.8787 20.0106 36.7597 19.8867C36.612 19.7328 36.4671 19.5776 36.3249 19.4199C36.2101 19.2932 36.0919 19.1689 35.9729 19.045C35.8215 18.8874 35.6729 18.7282 35.5269 18.5667C35.4198 18.4485 35.3104 18.332 35.1999 18.216C34.9782 17.9835 34.7575 17.7503 34.5429 17.5128C34.3955 17.3498 34.2435 17.1903 34.0906 17.031C33.962 16.8969 33.8366 16.7609 33.7127 16.6236C33.5978 16.4968 33.4796 16.3726 33.3607 16.2487C33.213 16.0949 33.0681 15.9396 32.9258 15.782C32.811 15.6552 32.6928 15.531 32.5739 15.4071C32.4373 15.2648 32.3024 15.1217 32.1706 14.9761C31.8982 14.6723 31.8982 14.6723 31.5982 14.389C31.5982 17.4082 31.5982 20.4275 31.5982 23.5382C30.3415 23.5382 29.0848 23.5382 27.79 23.5382C27.79 17.6341 27.79 11.73 27.79 5.647Z" fill="black"/>
<path d="M185.908 1.05881C187.258 1.05881 188.609 1.05881 190 1.05881C190 8.4591 190 15.8594 190 23.4839C188.649 23.4839 187.299 23.4839 185.908 23.4839C185.908 16.0836 185.908 8.68335 185.908 1.05881Z" fill="black"/>
<path fill-rule="evenodd" clip-rule="evenodd" d="M172.395 1.17473C171.67 1.05881 170.927 1.05881 162.776 1.05881V23.4839H166.868L166.899 15.9365L169.826 15.9093C169.826 15.9344 169.826 15.9478 169.83 15.96C169.835 15.9743 169.845 15.9868 169.867 16.0139L169.921 16.0722L169.971 16.1291L169.989 16.1492C170.189 16.3737 170.389 16.5981 170.58 16.828C170.744 17.026 170.912 17.2212 171.083 17.4144C171.3 17.6587 171.513 17.9054 171.724 18.1536C171.97 18.4435 172.217 18.7325 172.47 19.0179C172.686 19.2617 172.898 19.5078 173.109 19.7554C173.355 20.046 173.603 20.3355 173.857 20.6214C173.994 20.776 174.13 20.9313 174.262 21.0895C174.426 21.2878 174.594 21.4833 174.765 21.6768C175.001 21.9419 175.231 22.2099 175.46 22.4794L175.57 22.6091L175.68 22.739L175.777 22.8528C175.836 22.9167 175.891 22.9792 175.935 23.0518C176.005 23.1697 176.082 23.2765 176.182 23.3769C176.245 23.4272 176.29 23.4636 176.34 23.4894C176.472 23.5565 176.64 23.5519 177.244 23.5356C177.372 23.532 177.5 23.5305 177.627 23.5299C177.868 23.5288 178.11 23.5257 178.351 23.5208C178.628 23.5152 178.904 23.5118 179.181 23.5092C179.776 23.504 180.372 23.4954 180.968 23.4839C180.968 23.4797 180.968 23.4758 180.967 23.472C180.964 23.4329 180.932 23.3959 180.572 22.9834C180.451 22.8447 180.331 22.7055 180.211 22.5654C180.056 22.383 179.9 22.2017 179.741 22.022C179.503 21.7542 179.27 21.4845 179.039 21.2125C178.792 20.9226 178.545 20.6336 178.292 20.3482C178.13 20.1656 177.97 19.9821 177.812 19.7967C177.68 19.6406 177.546 19.4849 177.411 19.3301C177.295 19.1967 177.179 19.0626 177.065 18.9279C176.907 18.7431 176.749 18.5593 176.587 18.3772C176.572 18.3596 176.556 18.342 176.541 18.3244C176.41 18.178 176.28 18.0317 176.157 17.881C176.015 17.7077 175.869 17.5385 175.719 17.3703C175.576 17.2085 175.433 17.0463 175.293 16.8819C175.141 16.7022 174.987 16.5235 174.83 16.3467C174.664 16.1598 174.499 15.9726 174.338 15.7823L174.284 15.7176L174.232 15.6564L174.184 15.5996C174.129 15.5333 174.084 15.4673 174.044 15.3935C174.848 15.1126 175.598 14.761 176.264 14.2782L176.373 14.1989C177.11 13.682 177.719 12.9542 178.133 12.2221L178.166 12.1628C178.357 11.8246 178.518 11.4827 178.645 11.1229L178.67 11.0497C179.038 9.98652 179.159 8.85976 179.058 7.75413L179.048 7.65603C178.899 6.2072 178.373 4.73109 177.285 3.59449L177.222 3.52937C177.075 3.37021 176.929 3.21373 176.759 3.07187L176.687 3.01354C175.584 2.10193 174.24 1.50053 172.741 1.23419L172.619 1.21322C172.54 1.19915 172.467 1.18635 172.395 1.17473ZM173.333 4.71299C172.5 4.23525 171.393 4.23525 166.836 4.23525V12.76C167.22 12.76 167.644 12.7759 168.09 12.7926C170.1 12.8679 172.579 12.9606 174.075 11.7012C175.026 10.8502 175.378 9.74147 175.375 8.58046L175.375 8.51122C175.372 7.35956 175.13 6.19066 174.156 5.33626C173.84 5.06879 173.601 4.86629 173.333 4.71299Z" fill="black"/>
<path fill-rule="evenodd" clip-rule="evenodd" d="M100.793 1.93724C99.274 1.05881 97.2473 1.05881 88.3115 1.05881V23.4839H92.403L92.4344 15.9365H95.3614C95.4615 16.0574 95.5618 16.1779 95.6636 16.2976L95.7174 16.3607C95.8596 16.5274 96.0035 16.6929 96.1493 16.8573C96.3079 17.0359 96.466 17.2145 96.6181 17.3973C96.7825 17.5955 96.9501 17.7911 97.1219 17.9845C97.3388 18.2288 97.5516 18.4755 97.7625 18.7238C98.0091 19.0143 98.2567 19.3039 98.5106 19.5897C98.6479 19.7444 98.7839 19.8996 98.9156 20.0579C99.08 20.2561 99.2476 20.4517 99.4194 20.6451C99.6363 20.8894 99.8491 21.1361 100.06 21.3844C100.309 21.6772 100.558 21.969 100.814 22.2571C100.825 22.2692 100.835 22.2812 100.846 22.2933C100.946 22.406 101.046 22.5186 101.142 22.6341C101.152 22.6462 101.162 22.6583 101.172 22.6704C101.186 22.6882 101.201 22.706 101.215 22.7237C101.288 22.808 101.357 22.8893 101.415 22.9817C101.518 23.1471 101.629 23.2962 101.785 23.4283C102.015 23.5686 102.015 23.5686 102.786 23.5442C102.914 23.54 103.041 23.5383 103.168 23.5376C103.409 23.5363 103.65 23.5326 103.891 23.5269C104.167 23.5204 104.443 23.5164 104.719 23.5135C105.314 23.5073 105.908 23.4973 106.503 23.4839C106.503 23.4569 106.503 23.4434 106.499 23.4311C106.495 23.4186 106.487 23.4075 106.47 23.3852L106.424 23.3315L106.372 23.2704L106.314 23.2039C106.148 23.0111 105.979 22.8197 105.81 22.6287C105.594 22.3849 105.382 22.1388 105.172 21.8912C104.926 21.6013 104.679 21.3123 104.425 21.0269C104.264 20.8443 104.103 20.6608 103.946 20.4755C103.813 20.3193 103.679 20.1636 103.544 20.0088C103.428 19.8754 103.312 19.7414 103.198 19.6067C103.043 19.4242 102.886 19.2426 102.727 19.0628C102.489 18.795 102.255 18.5252 102.024 18.2532C101.778 17.9633 101.531 17.6743 101.278 17.389C101.044 17.1244 100.814 16.8569 100.586 16.5881L100.421 16.3933L100.366 16.3284C100.216 16.1523 100.062 15.9791 99.9052 15.8075C99.7818 15.6742 99.6724 15.544 99.5787 15.3935C100.296 15.1542 100.992 14.8414 101.595 14.4267L101.687 14.3618C102.585 13.7573 103.348 12.9143 103.795 12.0109L103.828 11.9456C104.37 10.8589 104.621 9.73206 104.622 8.5504L104.622 8.4705C104.622 8.18788 104.621 7.90588 104.592 7.62417L104.583 7.54743C104.456 6.47704 104.135 5.42374 103.519 4.48248L103.481 4.42529C103.306 4.15556 103.111 3.90259 102.893 3.65682L102.852 3.61082C102.657 3.39086 102.442 3.19394 102.211 3.0019L102.159 2.95924C101.64 2.5282 101.238 2.19493 100.793 1.93724ZM99.6735 5.32121C98.3832 4.23525 98.3832 4.23525 92.4033 4.23525V12.76C92.8602 12.76 93.3183 12.772 93.7766 12.7839C94.8711 12.8123 95.9665 12.8408 97.0464 12.7071L97.1203 12.6973C98.0401 12.575 98.9921 12.2795 99.6435 11.6797L99.705 11.6198C99.9073 11.4264 100.09 11.2325 100.243 11.0068L100.303 10.9139C100.495 10.62 100.625 10.324 100.725 9.99786L100.744 9.93655C100.777 9.82934 100.806 9.72271 100.827 9.61334L100.838 9.55646C100.929 9.07558 100.954 8.59783 100.938 8.11165C100.889 7.16552 100.574 6.03933 99.7347 5.36893L99.6735 5.32121Z" fill="black"/>
<path fill-rule="evenodd" clip-rule="evenodd" d="M122.388 0.279617C122.345 0.183011 122.305 0.0950378 122.208 0.0271492C122.173 0.0875832 122.143 0.1494 122.112 0.21163L122.085 0.266612L121.995 0.451795L121.962 0.519226C121.708 1.03902 121.457 1.55952 121.206 2.08019L120.922 2.66671C120.66 3.20972 120.398 3.75282 120.137 4.29634C119.936 4.71441 119.734 5.13227 119.532 5.54996L119.182 6.27609L118.981 6.69164L118.899 6.86035L118.859 6.9449L118.698 7.27737L118.619 7.44011L118.423 7.84579L118.068 8.58216C117.795 9.14655 117.522 9.71099 117.251 10.2759C116.993 10.8131 116.734 11.3498 116.474 11.8864L116.039 12.7872L115.922 13.0309L115.882 13.1122L115.644 13.6047C115.371 14.1691 115.099 14.7336 114.828 15.2985C114.57 15.8356 114.31 16.3723 114.051 16.909L113.616 17.8098L113.498 18.0535L113.459 18.1348L113.181 18.7106C112.932 19.2257 112.683 19.7408 112.435 20.2564L112.402 20.3244C112.277 20.5854 112.151 20.8464 112.027 21.1076L111.914 21.3448L111.838 21.5037C111.701 21.7899 111.564 22.0759 111.423 22.3605L111.385 22.4373L111.379 22.4505C111.321 22.5668 111.263 22.6832 111.205 22.7993L111.139 22.9307L111.109 22.9923C111.06 23.088 111.014 23.1829 110.978 23.2826L110.953 23.3551L110.909 23.4839C111.469 23.4845 112.028 23.485 112.587 23.4853C112.859 23.4854 113.131 23.4856 113.403 23.4859C113.642 23.4861 113.881 23.4864 114.12 23.4865L114.498 23.4867C114.619 23.4869 114.739 23.487 114.86 23.487L114.993 23.487L115.12 23.4873L115.235 23.4872C115.293 23.4872 115.352 23.4865 115.41 23.4839C115.414 23.4806 115.417 23.4775 115.421 23.4742C115.461 23.4365 115.486 23.3817 115.801 22.686C116.057 22.12 116.316 21.5551 116.578 20.9913C116.813 20.487 117.045 19.9819 117.273 19.4751L117.307 19.3986L117.372 19.2542C117.455 19.0677 117.548 18.8882 117.644 18.7057L126.834 18.6785C126.834 18.704 126.834 18.7175 126.837 18.7306C126.84 18.7454 126.845 18.7596 126.858 18.79L126.892 18.8616L126.93 18.9428C126.958 19.0028 126.986 19.0629 127.014 19.1231L127.059 19.218C127.13 19.3706 127.201 19.5235 127.271 19.6766L127.352 19.8522L127.392 19.9413L127.434 20.0319C127.621 20.4391 127.807 20.8463 127.997 21.2526C128.103 21.4812 128.208 21.7102 128.313 21.9396L128.382 22.0927L128.412 22.1585C128.465 22.2752 128.518 22.392 128.571 22.5088L128.684 22.7579L128.726 22.8522L128.766 22.9404L128.805 23.0247C128.819 23.0571 128.83 23.081 128.841 23.1047C128.873 23.1712 128.907 23.2363 129.037 23.4839H133.506C133.506 23.4429 133.506 23.4225 133.502 23.403C133.498 23.3839 133.49 23.3656 133.474 23.3293C133.45 23.2826 133.426 23.2358 133.402 23.1889L133.375 23.1357C133.326 23.0388 133.278 22.9415 133.231 22.8438L133.201 22.7809L133.105 22.5817L133.037 22.439L132.892 22.1367L132.581 21.4902L132.415 21.1441L132.348 21.0049L132.314 20.9353L131.111 18.4308L131.044 18.2917L130.877 17.944L130.575 17.3155C130.341 16.8285 130.107 16.3416 129.871 15.855C129.648 15.3921 129.425 14.9288 129.202 14.4654L128.9 13.8355L128.733 13.488L128.666 13.3488L128.632 13.2793L127.963 11.8879L127.897 11.7487L127.729 11.401L127.427 10.7726C127.193 10.2856 126.959 9.79866 126.724 9.31212C126.5 8.84918 126.278 8.38589 126.055 7.92252L125.752 7.29261L125.585 6.94508L125.518 6.80592L125.485 6.73636L124.281 4.23186L124.214 4.09272L124.047 3.74495L124.027 3.70287C123.933 3.50775 123.839 3.31262 123.746 3.11743L123.577 2.76622L123.543 2.69624C123.423 2.44596 123.303 2.19574 123.181 1.94617L123.149 1.88081L123.022 1.62216C122.904 1.38211 122.787 1.14188 122.675 0.899957L122.641 0.828152L122.628 0.799821C122.579 0.694945 122.53 0.590069 122.482 0.484948C122.463 0.442822 122.444 0.400728 122.424 0.358671L122.397 0.300018C122.394 0.293178 122.391 0.286377 122.388 0.279617ZM121.938 8.85282C121.913 8.79699 121.903 8.77323 121.831 8.74199C121.795 8.80162 121.763 8.86129 121.733 8.92356L121.694 9.00933L121.649 9.10933C121.604 9.20686 121.56 9.30434 121.516 9.40179L121.486 9.46661C121.36 9.74462 121.232 10.0222 121.104 10.2998L121.065 10.3847L120.817 10.9202L120.687 11.2025C120.372 11.8853 120.057 12.568 119.74 13.2501L119.612 13.5253L119.529 13.7041L119.488 13.792C119.409 13.9622 119.33 14.1323 119.25 14.3024L119.101 14.6219L119.033 14.7701C119.001 14.8382 118.969 14.9063 118.937 14.9744L118.908 15.0367C118.832 15.1992 118.774 15.3601 118.715 15.5293H124.978C124.978 15.4795 124.978 15.4601 124.974 15.4417C124.971 15.4299 124.967 15.4184 124.96 15.3997L124.935 15.3453L124.906 15.2824L124.874 15.2135C124.838 15.1361 124.802 15.0588 124.766 14.9815L124.687 14.8121C124.631 14.6916 124.575 14.571 124.519 14.4505C124.428 14.257 124.338 14.0634 124.248 13.8697L123.879 13.077C123.646 12.5765 123.414 12.076 123.181 11.5753L123.049 11.2889C122.829 10.8155 122.609 10.3421 122.394 9.86704L122.343 9.7537C122.273 9.59873 122.202 9.44375 122.133 9.28855L122.051 9.10608L122.014 9.02324L121.979 8.94513L121.947 8.87516C121.944 8.86717 121.941 8.85975 121.938 8.85282Z" fill="black"/>
<path fill-rule="evenodd" clip-rule="evenodd" d="M71.4535 0.346321C71.3995 0.231204 71.3485 0.1228 71.2537 0.0271492C71.2429 0.0364947 71.2358 0.0426232 71.2296 0.0495839C71.2179 0.0628442 71.2096 0.0791245 71.1853 0.126419L71.1381 0.224934L71.0542 0.399385L70.9924 0.528097L70.8587 0.806083C70.7474 1.0376 70.6356 1.26895 70.5239 1.50029L70.3651 1.82886L70.0398 2.50221C69.7673 3.06612 69.4948 3.63008 69.2238 4.19453C68.9658 4.73167 68.7066 5.26838 68.4472 5.80502L68.0121 6.70581L67.8943 6.94953L67.8551 7.03086L67.6171 7.52335C67.3411 8.09453 67.0651 8.66576 66.7905 9.23746C66.5897 9.65554 66.3883 10.0734 66.1864 10.4911L65.8356 11.2172L65.6349 11.6328L65.5534 11.8015L65.5125 11.886L65.3519 12.2185L65.2733 12.3812L65.0774 12.7869L64.7217 13.5233C64.4489 14.0877 64.1762 14.6521 63.9049 15.217C63.6469 15.7542 63.3877 16.2909 63.1284 16.8275L62.6932 17.7283L62.5755 17.972L62.5362 18.0534L62.2983 18.5459C62.0255 19.1103 61.7528 19.6747 61.4815 20.2396C61.3158 20.5848 61.1496 20.9297 60.9828 21.2745C60.8771 21.4932 60.7715 21.712 60.6659 21.9308L60.542 22.1873C60.4709 22.3344 60.3999 22.4814 60.3291 22.6285L60.2482 22.7967C60.2098 22.8761 60.1714 22.9555 60.1332 23.0349L60.0983 23.1075L60.0652 23.1757L60.035 23.2388C59.9959 23.3199 59.9743 23.3977 59.9551 23.4839C60.5145 23.4845 61.0739 23.485 61.6333 23.4853C61.9052 23.4854 62.177 23.4856 62.4489 23.4859C62.6878 23.4861 62.9266 23.4864 63.1655 23.4865L63.5437 23.4867C63.6644 23.4869 63.7852 23.487 63.9059 23.487L64.0389 23.487L64.1661 23.4873L64.281 23.4872C64.3392 23.4872 64.3975 23.4865 64.4557 23.4839C64.4692 23.4723 64.4769 23.4656 64.4832 23.4579C64.4917 23.4475 64.4978 23.4353 64.512 23.4067L64.5427 23.3384L64.5794 23.2572C64.6159 23.1759 64.6527 23.0946 64.6895 23.0134L64.7149 22.9573C64.9156 22.5164 64.9157 22.5162 65.1178 22.0764L65.1181 22.0757L65.1618 21.9805C65.3342 21.6053 65.5067 21.2301 65.6811 20.8556C65.788 20.6263 65.8933 20.3965 65.9977 20.1664L66.0676 20.0123L66.1148 19.9083L66.1385 19.8559C66.186 19.7514 66.2333 19.6469 66.2806 19.5423L66.3709 19.3426L66.4138 19.248L66.4541 19.1585L66.4925 19.0742C66.5379 18.9821 66.5608 18.9356 66.5852 18.8899C66.6102 18.8434 66.6367 18.7978 66.6902 18.7057L75.8802 18.6785C75.8802 18.6978 75.8802 18.7109 75.882 18.7237C75.8859 18.7513 75.898 18.7778 75.9361 18.8609L75.9613 18.9151L76.016 19.0339C76.0688 19.148 76.1214 19.2622 76.1739 19.3763L76.2081 19.4506C76.2933 19.6357 76.3781 19.8209 76.4622 20.0063L76.4995 20.0886L76.5755 20.2565C76.8424 20.8454 77.1122 21.4332 77.3857 22.0198C77.4824 22.2271 77.5783 22.4347 77.6741 22.6423L78.0518 23.4839H82.5524C82.5524 23.4589 82.5524 23.4455 82.5499 23.4325C82.5469 23.4172 82.5405 23.4026 82.5265 23.3709L82.489 23.295L82.4451 23.2058C82.4 23.1142 82.3557 23.0223 82.3115 22.9304L82.2503 22.8029L82.1851 22.6673L82.116 22.5234L81.97 22.2196L81.6585 21.5716L81.4922 21.2256L81.4253 21.0863L81.3918 21.0168L80.7231 19.6254L80.6562 19.4862L80.489 19.1385L80.187 18.5101C79.9531 18.0231 79.719 17.5361 79.4838 17.0496C79.26 16.5867 79.0373 16.1234 78.8147 15.66L78.512 15.0301L78.3449 14.6826L78.278 14.5434L78.2446 14.4738L77.0408 11.9693L76.9739 11.8302L76.8067 11.4825L76.5047 10.854C76.2708 10.367 76.0367 9.8801 75.8015 9.39357C75.5777 8.93063 75.355 8.46733 75.1324 8.00397L74.8297 7.37406L74.6626 7.02653L74.5957 6.88737L74.5623 6.8178L73.8935 5.42641L73.8266 5.28728L73.6595 4.93957L73.3575 4.31112C73.1235 3.82413 72.8895 3.33718 72.6543 2.85065C72.5098 2.55183 72.3656 2.25292 72.2219 1.95385L72.1213 1.74461C72.0168 1.5275 71.9124 1.31039 71.8089 1.09293L71.6599 0.779919L71.5881 0.629519L71.5862 0.625483C71.5532 0.555596 71.5201 0.485711 71.4868 0.41591L71.4556 0.350711L71.4535 0.346321ZM71.4136 8.9856C71.3721 8.89228 71.3266 8.81974 71.2535 8.74199C71.2398 8.75382 71.232 8.7605 71.2256 8.76828C71.2173 8.77835 71.2113 8.79026 71.1975 8.81761L71.1677 8.8827L71.133 8.95815L71.0944 9.04286L70.9849 9.28175C70.9078 9.45028 70.8305 9.61875 70.7532 9.7872L70.6956 9.91269C70.4452 10.4582 70.1936 11.0034 69.9419 11.5485L69.6343 12.2148C69.6001 12.2889 69.5659 12.363 69.5317 12.4371C69.332 12.8699 69.1323 13.3027 68.9322 13.7353L68.6635 14.3163C68.6038 14.4455 68.5441 14.5748 68.4842 14.7039L68.3744 14.9413L68.3243 15.0498L68.2773 15.1508L68.235 15.2427C68.1894 15.3414 68.1623 15.4233 68.1377 15.5293H74.4007C74.4007 15.5076 74.4007 15.4946 74.3987 15.482C74.3955 15.4628 74.3876 15.4444 74.3676 15.3983L74.2952 15.2448L74.2683 15.1876C74.2215 15.0883 74.1754 14.9889 74.1295 14.8893L74.0719 14.7641L74.0418 14.6989L73.9468 14.4925L73.6697 13.8911L73.6108 13.7633C73.4029 13.312 73.1951 12.8608 72.9858 12.41C72.7736 11.9529 72.5627 11.4954 72.3517 11.038L72.1701 10.6441L72.026 10.3318L71.9556 10.179C71.9444 10.1548 71.9333 10.1306 71.9221 10.1064C71.8178 9.88048 71.7135 9.65456 71.6116 9.42781L71.586 9.3709L71.4926 9.16301L71.4513 9.06975L71.4136 8.9856Z" fill="black"/>
<path fill-rule="evenodd" clip-rule="evenodd" d="M11.3616 0.0271492H11.2987L10.1177 2.47199L10.0391 2.63473L9.84319 3.04041L9.48746 3.77678C9.21468 4.34117 8.94201 4.90561 8.6707 5.47053C8.41273 6.00768 8.15354 6.54438 7.89417 7.08102L7.459 7.98182L7.34129 8.22553L7.30201 8.30686L7.06407 8.79935C6.78801 9.37053 6.51208 9.94176 6.23747 10.5135C6.03666 10.9315 5.83525 11.3494 5.63335 11.7671L5.28252 12.4932L5.0818 12.9088L5.00031 13.0775L4.95947 13.162L4.79888 13.4945L4.72027 13.6572L4.52432 14.0629L4.1686 14.7993C3.89581 15.3637 3.62314 15.9281 3.35183 16.493C3.09386 17.0302 2.83468 17.5669 2.57531 18.1035L2.14014 19.0043L2.02242 19.248L1.98314 19.3294L1.74521 19.8219L1.54461 20.2369L1.50478 20.3194C1.31083 20.7207 1.11736 21.1223 0.924507 21.5241C0.798587 21.7866 0.672397 22.049 0.544761 22.3109L0.505037 22.3923L0.475618 22.4527C0.421495 22.5639 0.367371 22.675 0.312995 22.786L0.242009 22.9312L0.208752 22.9995C0.130087 23.1593 0.0639196 23.3185 0 23.4839H4.53205C4.55515 23.4341 4.57827 23.3843 4.60138 23.3345C4.69996 23.122 4.79853 22.9095 4.89625 22.6968L4.92976 22.6237L5.00736 22.4547L5.13158 22.1842L5.53069 21.3147C5.69531 20.9559 5.86004 20.5971 6.02505 20.2384L6.14686 19.9735C6.21404 19.8272 6.28129 19.681 6.34871 19.5348L6.42434 19.3708C6.45952 19.2942 6.49469 19.2176 6.53007 19.141L6.56228 19.0714L6.59199 19.0064L6.61995 18.9462L6.64377 18.8945L6.67219 18.8414C6.68238 18.8072 6.68792 18.7886 6.69779 18.7727C6.70954 18.7538 6.72743 18.7387 6.76661 18.7057C6.85166 18.6903 6.93158 18.6889 7.0185 18.6882L7.12565 18.6894C7.24595 18.689 7.36622 18.6887 7.48651 18.6895C7.59762 18.6902 7.70872 18.6904 7.81984 18.6903C8.01222 18.6901 8.2046 18.6903 8.39698 18.691C8.6778 18.6921 8.95861 18.6927 9.23943 18.6929C9.69427 18.6932 10.1491 18.6939 10.6039 18.6952C11.0474 18.6965 11.4909 18.6975 11.9344 18.6981L12.0174 18.6982L12.4297 18.6988C13.5949 18.7002 14.76 18.7026 15.9251 18.7057C15.9556 18.7713 15.986 18.837 16.0163 18.9027L16.0454 18.9661L16.0791 19.0395L16.1156 19.1189L16.2375 19.3843L16.4158 19.7726L16.462 19.8732L16.7805 20.5665L16.9078 20.8436L16.9913 21.0252L17.0242 21.097C17.1537 21.3788 17.2832 21.6606 17.412 21.9427L17.4442 22.0131L17.4678 22.0648C17.5092 22.1555 17.5507 22.2463 17.592 22.3371C17.6302 22.4212 17.6582 22.4825 17.6863 22.5438C17.7624 22.7093 17.8402 22.874 18.1282 23.4839H22.5973C22.5973 23.4349 22.5973 23.4154 22.5932 23.3968C22.5904 23.3845 22.5859 23.3726 22.5783 23.3528L22.5495 23.2931L22.5144 23.2197C22.4917 23.1727 22.469 23.1258 22.4464 23.0788C22.3858 22.952 22.3249 22.8252 22.2639 22.6985L22.1941 22.5535L22.0472 22.2481L21.7349 21.5986L21.5686 21.2527L21.5017 21.1135L21.3345 20.7656L21.2676 20.6265L21.1005 20.2788L20.7984 19.6503C20.5645 19.1633 20.3304 18.6764 20.0952 18.1899C19.8715 17.7269 19.6487 17.2636 19.4261 16.8003L19.1234 16.1703L18.9563 15.8228L18.8895 15.6837L18.856 15.6141L18.1872 14.2227L18.1203 14.0836L17.9532 13.7359L17.6512 13.1074C17.4172 12.6204 17.1832 12.1335 16.948 11.6469C16.7242 11.184 16.5014 10.7207 16.2788 10.2573L15.9761 9.62743L15.8091 9.2799L15.7422 9.14074L15.7088 9.07117L15.04 7.67978L14.9731 7.54065L14.8059 7.19293L14.5039 6.56449C14.27 6.0775 14.0359 5.59055 13.8007 5.10402C13.5769 4.64108 13.3542 4.17779 13.1316 3.71442L12.8289 3.08454L12.7286 2.876L12.4288 2.25216C12.0877 1.5431 11.7476 0.833721 11.408 0.124126L11.3616 0.0271492ZM11.3613 8.74199H11.2984L10.9477 9.50322L10.7672 9.89486C10.7457 9.94152 10.7242 9.98818 10.7027 10.0348C10.4935 10.4891 10.2842 10.9433 10.0736 11.3971C10 11.5555 9.951 11.6611 9.90205 11.7667C9.80411 11.9782 9.70652 12.1898 9.41361 12.8248L9.25922 13.1595C9.22437 13.235 9.18952 13.3106 9.15466 13.3861C8.95702 13.8142 8.75937 14.2424 8.56353 14.6711L8.52009 14.7663C8.40428 15.0196 8.29348 15.2742 8.18262 15.5293H14.4771C14.4771 15.5243 14.4771 15.5202 14.4768 15.5161C14.4753 15.495 14.4658 15.4746 14.4076 15.3493L14.3764 15.2825L14.3094 15.1382L14.1185 14.7279L14.0779 14.6407C13.9277 14.3174 13.7782 13.994 13.6289 13.6704L13.5467 13.4922L13.3788 13.1281C13.3223 13.0057 13.2658 12.8832 13.2094 12.7608C12.9168 12.1262 12.6242 11.4917 12.3299 10.8577L12.3007 10.795L12.2734 10.7362C12.2034 10.5854 12.1334 10.4346 12.0633 10.2839C11.8347 9.79311 11.6109 9.30089 11.3905 8.80732L11.3613 8.74199Z" fill="black"/>
<path d="M47.5869 36.3797C47.8985 36.3797 48.2101 36.3797 48.5311 36.3797C48.6355 36.7332 48.7305 37.0882 48.8234 37.444C48.8394 37.5051 48.8554 37.5661 48.8714 37.6272C48.9135 37.7875 48.9555 37.9479 48.9974 38.1083C49.039 38.2673 49.0807 38.4262 49.1223 38.5851C49.1345 38.6319 49.1345 38.6319 49.147 38.6795C49.1878 38.8353 49.2287 38.991 49.2695 39.1467C49.3409 39.4185 49.4121 39.6903 49.482 39.9623C49.511 40.0752 49.5403 40.1879 49.5695 40.3007C49.5831 40.3535 49.5967 40.4062 49.6101 40.459C49.6284 40.531 49.647 40.6029 49.6657 40.6747C49.6737 40.7066 49.6737 40.7066 49.6819 40.7392C49.6949 40.7887 49.7107 40.8377 49.727 40.8865C49.7478 40.8954 49.7686 40.9044 49.79 40.9136C49.7933 40.8978 49.7967 40.8821 49.8001 40.8658C49.8416 40.6782 49.8968 40.4955 49.9565 40.3117C49.9669 40.2792 49.9773 40.2467 49.9881 40.2133C50.0169 40.1238 50.0458 40.0344 50.0747 39.945C50.1055 39.8497 50.1362 39.7544 50.1669 39.6591C50.221 39.4914 50.2751 39.3238 50.3294 39.1561C50.3927 38.9603 50.4559 38.7644 50.5191 38.5685C50.6137 38.2753 50.7084 37.982 50.8031 37.6888C50.8286 37.6099 50.854 37.5311 50.8795 37.4522C50.9198 37.3272 50.9602 37.2023 51.0006 37.0774C51.0156 37.0311 51.0306 36.9848 51.0455 36.9385C51.0661 36.8748 51.0867 36.8111 51.1073 36.7474C51.1132 36.7289 51.1192 36.7105 51.1253 36.6914C51.1595 36.5862 51.1976 36.4836 51.2377 36.3797C51.5493 36.3797 51.8609 36.3797 52.1819 36.3797C52.3011 36.7029 52.4107 37.0277 52.5159 37.3544C52.5327 37.4063 52.5495 37.4581 52.5662 37.5099C52.6016 37.6192 52.6369 37.7285 52.6722 37.8379C52.7271 38.0081 52.7822 38.1782 52.8373 38.3484C52.9865 38.8093 53.1356 39.2702 53.2836 39.7314C53.3305 39.8776 53.3776 40.0237 53.4247 40.1699C53.456 40.2672 53.487 40.3646 53.5181 40.4619C53.5366 40.5193 53.5551 40.5767 53.5736 40.6341C53.5817 40.6597 53.5898 40.6854 53.5981 40.7119C53.6056 40.7348 53.613 40.7578 53.6207 40.7814C53.6271 40.8012 53.6334 40.821 53.6399 40.8414C53.6571 40.8922 53.6571 40.8922 53.7241 40.9136C53.7275 40.8801 53.731 40.8466 53.7346 40.8121C53.7554 40.6513 53.7971 40.4958 53.8394 40.3384C53.848 40.3061 53.8565 40.2737 53.8653 40.2404C53.8887 40.1523 53.9122 40.0641 53.9358 39.976C53.9607 39.8826 53.9854 39.7893 54.0102 39.6959C54.0573 39.5185 54.1045 39.341 54.1519 39.1636C54.21 38.9454 54.268 38.7272 54.326 38.509C54.3466 38.4312 54.3673 38.3535 54.388 38.2757C54.393 38.2567 54.3981 38.2377 54.4032 38.2182C54.4371 38.0908 54.471 37.9635 54.5049 37.8361C54.6342 37.3509 54.7617 36.8654 54.8886 36.3797C55.2001 36.3797 55.5117 36.3797 55.8327 36.3797C55.7973 36.6241 55.7973 36.6241 55.768 36.7239C55.7615 36.7467 55.7549 36.7694 55.7481 36.7928C55.7409 36.8171 55.7337 36.8413 55.7263 36.8663C55.7148 36.9057 55.7148 36.9057 55.7031 36.9458C55.6777 37.0328 55.6521 37.1198 55.6264 37.2067C55.6083 37.2685 55.5902 37.3304 55.5721 37.3922C55.5237 37.5578 55.475 37.7234 55.4263 37.889C55.386 38.0258 55.3459 38.1627 55.3057 38.2996C55.0627 39.1283 54.8183 39.9567 54.5719 40.7846C54.5657 40.8055 54.5594 40.8263 54.5531 40.8478C54.5178 40.9663 54.4825 41.0848 54.4471 41.2032C54.4318 41.2543 54.4166 41.3053 54.4014 41.3563C54.3923 41.3869 54.3831 41.4175 54.3737 41.449C54.3659 41.4749 54.3582 41.5008 54.3502 41.5276C54.3103 41.658 54.2688 41.788 54.2276 41.9181C53.8745 41.9181 53.5214 41.9181 53.1576 41.9181C53.1107 41.7748 53.0638 41.6316 53.0156 41.4839C52.8641 41.0209 52.7125 40.5579 52.5609 40.0949C52.5431 40.0406 52.5253 39.9863 52.5075 39.932C52.4987 39.9052 52.49 39.8784 52.4809 39.8508C52.4213 39.6687 52.3617 39.4865 52.3021 39.3044C52.2321 39.0906 52.1621 38.8769 52.092 38.6632C52.0557 38.5523 52.0193 38.4414 51.9831 38.3305C51.9492 38.2269 51.9152 38.1233 51.8812 38.0197C51.8688 37.9819 51.8564 37.944 51.844 37.9061C51.8273 37.8548 51.8104 37.8036 51.7936 37.7523C51.7795 37.7093 51.7795 37.7093 51.7651 37.6654C51.7482 37.6032 51.7482 37.6032 51.7098 37.5743C51.648 37.7575 51.5864 37.9407 51.5249 38.124C51.515 38.1536 51.5051 38.1831 51.4949 38.2136C51.3379 38.6821 51.1833 39.1512 51.0297 39.6206C51.0162 39.6621 51.0162 39.6621 51.0023 39.7044C50.9105 39.9851 50.8187 40.2659 50.7271 40.5467C50.6922 40.6539 50.6572 40.761 50.6222 40.8682C50.6058 40.9182 50.5895 40.9682 50.5732 41.0182C50.4751 41.3199 50.372 41.6195 50.2621 41.9181C49.9193 41.9181 49.5766 41.9181 49.2235 41.9181C49.1619 41.7587 49.105 41.6029 49.0576 41.4406C49.0511 41.4185 49.0445 41.3964 49.0378 41.3736C49.0162 41.3003 48.9947 41.2271 48.9732 41.1538C48.9577 41.1011 48.9421 41.0485 48.9266 40.9958C48.8846 40.8537 48.8428 40.7116 48.8011 40.5695C48.7574 40.4211 48.7136 40.2727 48.6699 40.1242C48.652 40.0636 48.6342 40.003 48.6163 39.9424C48.6074 39.9121 48.5984 39.8819 48.5893 39.8507C48.5619 39.7579 48.5346 39.6651 48.5072 39.5723C48.3907 39.177 48.2737 38.7818 48.1561 38.3868C48.1306 38.301 48.1051 38.2152 48.0795 38.1294C48.0713 38.1016 48.063 38.0739 48.0545 38.0453C48.0381 37.9901 48.0217 37.9349 48.0053 37.8797C47.9653 37.7453 47.9253 37.611 47.8853 37.4766C47.8477 37.3508 47.8103 37.225 47.7729 37.0992C47.7593 37.0532 47.7456 37.0073 47.7318 36.9614C47.7131 36.8987 47.6945 36.8361 47.6759 36.7734C47.6705 36.7554 47.6651 36.7374 47.6595 36.7189C47.626 36.605 47.6064 36.4973 47.5869 36.3797Z" fill="black"/>
<path d="M42.9597 2.68775C44.4449 2.68775 45.9301 2.68775 47.4603 2.68775C47.3351 2.83178 47.209 2.97302 47.0767 3.11196C46.9459 3.25003 46.8164 3.3888 46.6892 3.52937C46.5481 3.68522 46.4041 3.83879 46.2592 3.99197C46.1493 4.10831 46.0409 4.22557 45.9339 4.34385C45.7928 4.49968 45.6487 4.65326 45.5038 4.80644C45.3939 4.92279 45.2856 5.04004 45.1785 5.15832C45.0375 5.31416 44.8934 5.46773 44.7485 5.62091C44.6386 5.73726 44.5302 5.85451 44.4232 5.97279C44.2821 6.12865 44.138 6.28226 43.9931 6.43544C43.8838 6.55115 43.7761 6.66784 43.6698 6.78556C43.5224 6.94858 43.3704 7.10807 43.2176 7.26729C43.0884 7.40217 42.962 7.5387 42.8374 7.67671C42.7278 7.79777 42.6159 7.91713 42.5033 8.03612C42.3759 8.17084 42.2497 8.30629 42.1257 8.44335C42.0016 8.58041 41.8755 8.71586 41.748 8.85059C41.5765 9.03194 41.408 9.21511 41.241 9.39956C41.1617 9.48706 41.0821 9.57435 41.0025 9.66166C40.9732 9.69383 40.9439 9.726 40.9146 9.75817C40.8831 9.79271 40.8831 9.79271 40.851 9.82795C40.8303 9.81899 40.8095 9.81003 40.7881 9.8008C40.8266 9.62639 40.871 9.45456 40.9242 9.28306C40.9313 9.25989 40.9384 9.23671 40.9457 9.21283C40.9692 9.13618 40.9929 9.05956 41.0165 8.98294C41.0334 8.92794 41.0503 8.87294 41.0672 8.81793C41.1127 8.66964 41.1584 8.52138 41.2041 8.37312C41.2424 8.24878 41.2806 8.12443 41.3189 8.00008C41.6353 6.97077 41.9532 5.94177 42.2716 4.91292C42.5012 4.17124 42.7304 3.42949 42.9597 2.68775Z" fill="black"/>
<path d="M33.5186 2.68775C35.0037 2.68775 36.4889 2.68775 38.0191 2.68775C38.1662 3.16063 38.1662 3.16063 38.3162 3.64306C38.3801 3.84859 38.444 4.05412 38.5079 4.25964C38.5161 4.28574 38.5242 4.31184 38.5325 4.33873C38.5922 4.53048 38.6519 4.72223 38.7115 4.91398C38.7238 4.95351 38.7238 4.95351 38.7364 4.99385C38.8341 5.30775 38.9318 5.62165 39.0295 5.93553C39.0704 6.06656 39.1112 6.19761 39.1519 6.32866C39.3279 6.89436 39.5047 7.45987 39.6839 8.02482C39.7352 8.18674 39.7864 8.3487 39.8376 8.51065C39.8862 8.66431 39.9351 8.81791 39.9842 8.97145C40.0142 9.06554 40.044 9.15967 40.0737 9.25383C40.0875 9.29741 40.1014 9.34096 40.1154 9.38448C40.1345 9.44373 40.1532 9.50305 40.1718 9.56241C40.1824 9.59555 40.1929 9.62868 40.2038 9.66283C40.2211 9.74121 40.2231 9.78169 40.1907 9.8551C40.0004 9.66391 39.8142 9.47078 39.6349 9.27181C39.5185 9.14312 39.3988 9.017 39.278 8.89131C39.1297 8.73675 38.9839 8.58079 38.8408 8.42255C38.6647 8.22806 38.4833 8.03726 38.3024 7.84607C38.0921 7.62382 37.8827 7.40112 37.6779 7.17506C37.5011 6.98025 37.3193 6.7889 37.1379 6.59722C36.9276 6.37501 36.7183 6.15241 36.5136 5.92632C36.3864 5.7861 36.2561 5.64808 36.1255 5.51013C36.0163 5.39443 35.9086 5.27774 35.8023 5.16001C35.6549 4.99697 35.5029 4.83746 35.35 4.67823C35.2215 4.54406 35.096 4.40813 34.9721 4.27078C34.8572 4.144 34.7391 4.01979 34.6201 3.89589C34.4719 3.74153 34.3262 3.58587 34.1835 3.42773C34.0529 3.28324 33.9186 3.14135 33.7834 3.00007C33.7671 2.98296 33.7508 2.96585 33.7341 2.94822C33.7198 2.93329 33.7055 2.91836 33.6908 2.90298C33.6294 2.83371 33.5746 2.76029 33.5186 2.68775Z" fill="black"/>
<path d="M110.973 36.3797C111.822 36.3797 111.822 36.3797 112.001 36.5064C112.057 36.5906 112.057 36.5906 112.106 36.6834C112.126 36.7157 112.146 36.7478 112.167 36.7797C112.21 36.8468 112.252 36.9145 112.293 36.9828C112.387 37.1357 112.499 37.2775 112.611 37.4207C112.675 37.5027 112.737 37.5855 112.8 37.6681C112.826 37.702 112.851 37.7358 112.877 37.7697C112.89 37.7866 112.903 37.8036 112.916 37.8211C113.149 38.128 113.383 38.4348 113.616 38.7417C113.714 38.87 113.812 38.9983 113.909 39.1267C113.937 39.1628 113.964 39.199 113.992 39.2352C114.143 39.4339 114.294 39.6326 114.445 39.8315C114.459 39.8494 114.472 39.8673 114.486 39.8858C114.551 39.9707 114.615 40.0556 114.68 40.1406C114.703 40.1711 114.726 40.2017 114.749 40.2322C114.769 40.2584 114.789 40.2846 114.809 40.3115C114.894 40.422 114.979 40.532 115.064 40.6421C115.074 39.2355 115.085 37.8289 115.096 36.3797C115.376 36.3797 115.656 36.3797 115.945 36.3797C115.945 38.2074 115.945 40.0351 115.945 41.9181C115.655 41.9181 115.364 41.9181 115.064 41.9181C114.858 41.7159 114.858 41.7159 114.815 41.6146C114.748 41.4736 114.655 41.3557 114.555 41.2309C114.517 41.1822 114.479 41.1335 114.441 41.0847C114.42 41.0578 114.399 41.031 114.378 41.0034C114.239 40.8235 114.102 40.6429 113.965 40.4622C113.949 40.442 113.934 40.4218 113.918 40.401C113.839 40.2967 113.759 40.1925 113.68 40.0883C113.543 39.9078 113.405 39.7275 113.268 39.5471C113.193 39.4491 113.118 39.3511 113.044 39.2532C113.029 39.2337 113.014 39.2142 112.999 39.1942C112.904 39.0691 112.808 38.9441 112.713 38.819C112.648 38.733 112.582 38.647 112.517 38.5611C112.486 38.5204 112.455 38.4798 112.424 38.4392C112.395 38.4009 112.366 38.3627 112.337 38.3244C112.309 38.2881 112.281 38.2519 112.254 38.2156C112.19 38.1318 112.126 38.0483 112.061 37.9654C112.037 37.9359 112.014 37.9065 111.99 37.8762C111.97 37.8505 111.95 37.8249 111.929 37.7984C111.885 37.7372 111.885 37.7372 111.885 37.6829C111.865 37.6829 111.844 37.6829 111.822 37.6829C111.822 39.0805 111.822 40.4781 111.822 41.9181C111.542 41.9181 111.262 41.9181 110.973 41.9181C110.973 40.0904 110.973 38.2628 110.973 36.3797Z" fill="black"/>
<path d="M129.195 36.977C129.216 36.9931 129.238 37.0092 129.261 37.0258C129.611 37.3062 129.888 37.7405 129.982 38.1444C129.68 38.1444 129.379 38.1444 129.069 38.1444C129.007 38.0458 128.944 37.9473 128.88 37.8458C128.55 37.4428 128.118 37.1864 127.558 37.0788C126.965 36.9986 126.332 37.0565 125.823 37.347C125.282 37.6882 124.989 38.1502 124.866 38.7111C124.775 39.2472 124.83 39.8361 125.135 40.3163C125.149 40.339 125.163 40.3617 125.177 40.3851C125.451 40.8074 125.853 41.0593 126.376 41.213C127.039 41.3696 127.699 41.3284 128.307 41.0489C128.465 40.9647 128.594 40.8651 128.723 40.7507C128.753 40.7238 128.753 40.7238 128.784 40.6964C129.144 40.3609 129.266 39.9673 129.384 39.529C128.553 39.529 127.722 39.529 126.866 39.529C126.866 39.3409 126.866 39.1527 126.866 38.9589C127.936 38.9589 129.005 38.9589 130.107 38.9589C130.107 39.8056 130.043 40.4546 129.415 41.1036C129.399 41.1214 129.383 41.1392 129.366 41.1575C128.921 41.6319 128.19 41.9133 127.498 41.978C126.65 42.0495 125.788 41.9173 125.103 41.4566C124.655 41.1366 124.337 40.7735 124.132 40.3044C124.123 40.2851 124.114 40.2657 124.105 40.2458C123.961 39.8952 123.921 39.5368 123.925 39.1676C123.925 39.1482 123.925 39.1287 123.925 39.1087C123.931 38.3202 124.233 37.6223 124.859 37.0398C126.025 36.0931 127.995 36.0833 129.195 36.977Z" fill="black"/>
<path d="M88.5635 36.3797C92.2052 36.3797 92.2052 36.3797 93.1683 37.1727C93.7161 37.6674 93.9524 38.3399 93.9768 39.0132C93.978 39.0362 93.9793 39.0592 93.9806 39.0829C94.0039 39.8556 93.7444 40.6089 93.1231 41.1766C91.8989 42.187 90.1367 41.9181 88.5635 41.9181C88.5635 40.0904 88.5635 38.2628 88.5635 36.3797ZM89.3818 37.0313C89.3818 38.4289 89.3818 39.8266 89.3818 41.2665C90.5091 41.323 90.5091 41.323 91.6576 41.1359C91.6788 41.1286 91.6999 41.1214 91.7218 41.114C92.033 41.0054 92.2575 40.8725 92.4975 40.6693C92.5177 40.6525 92.5379 40.6358 92.5587 40.6186C93.0646 40.1635 93.1123 39.5167 93.0986 38.9222C93.0928 38.7859 93.07 38.6567 93.0326 38.5245C93.0265 38.5 93.0203 38.4755 93.014 38.4502C92.9305 38.1485 92.7649 37.8885 92.529 37.6557C92.513 37.6393 92.497 37.623 92.4805 37.6061C92.084 37.2312 91.5413 37.132 90.9869 37.0313C90.4572 37.0313 89.9275 37.0313 89.3818 37.0313Z" fill="black"/>
<path d="M75.1562 36.3797C78.7979 36.3797 78.7979 36.3797 79.7611 37.1727C80.3089 37.6674 80.5452 38.3399 80.5695 39.0132C80.5708 39.0362 80.5721 39.0592 80.5733 39.0829C80.5966 39.8556 80.3371 40.6089 79.7158 41.1766C78.4917 42.187 76.7295 41.9181 75.1562 41.9181C75.1562 40.0904 75.1562 38.2628 75.1562 36.3797ZM75.9745 37.0313C75.9745 38.4289 75.9745 39.8266 75.9745 41.2665C77.1018 41.323 77.1018 41.323 78.2504 41.1359C78.2716 41.1286 78.2927 41.1214 78.3145 41.114C78.6258 41.0054 78.8503 40.8725 79.0903 40.6693C79.1105 40.6525 79.1306 40.6358 79.1514 40.6186C79.6574 40.1635 79.7051 39.5167 79.6914 38.9222C79.6856 38.7859 79.6627 38.6567 79.6254 38.5245C79.6192 38.5 79.6131 38.4755 79.6068 38.4502C79.5233 38.1485 79.3576 37.8885 79.1218 37.6557C79.1058 37.6393 79.0897 37.623 79.0732 37.6061C78.6768 37.2312 78.134 37.132 77.5796 37.0313C77.05 37.0313 76.5203 37.0313 75.9745 37.0313Z" fill="black"/>
<path d="M141.399 36.7106C141.78 36.9935 141.948 37.3172 142.036 37.7372C141.724 37.7372 141.413 37.7372 141.092 37.7372C141.04 37.6297 140.988 37.5221 140.935 37.4114C140.852 37.3167 140.852 37.3167 140.777 37.2485C140.777 37.2306 140.777 37.2126 140.777 37.1942C140.761 37.1875 140.745 37.1807 140.728 37.1738C140.651 37.1399 140.651 37.1399 140.553 37.0873C140.216 36.9238 139.836 36.908 139.461 36.9753C139.22 37.04 139.029 37.207 138.889 37.3842C138.787 37.5965 138.775 37.8729 138.875 38.0867C139.074 38.4112 139.386 38.5485 139.772 38.6687C139.821 38.6844 139.821 38.6844 139.872 38.7004C140.068 38.7625 140.265 38.8217 140.464 38.8795C141.407 39.156 141.407 39.156 141.753 39.4747C141.771 39.4903 141.789 39.5059 141.808 39.5219C142.127 39.8118 142.181 40.2008 142.17 40.5828C142.151 40.9346 141.987 41.2778 141.704 41.5336C141.212 41.9082 140.616 42.0235 139.971 41.9962C139.331 41.9568 138.76 41.7594 138.322 41.348C138.047 41.0669 137.952 40.7866 137.882 40.4249C138.183 40.4249 138.484 40.4249 138.794 40.4249C138.826 40.5056 138.857 40.5862 138.889 40.6693C139.026 40.9453 139.23 41.1426 139.546 41.2723C139.748 41.3373 139.928 41.3585 140.142 41.3582C140.17 41.3581 140.198 41.3581 140.226 41.358C140.432 41.3547 140.598 41.3311 140.777 41.2394C140.812 41.2232 140.846 41.2069 140.881 41.1902C141.105 41.0334 141.197 40.834 141.228 40.5899C141.239 40.3451 141.176 40.1273 141.001 39.9311C140.681 39.6527 140.226 39.5386 139.805 39.4187C139.187 39.2405 139.187 39.2405 138.891 39.1297C138.871 39.1222 138.85 39.1147 138.83 39.107C138.66 39.0418 138.521 38.9583 138.385 38.8503C138.357 38.8284 138.329 38.8066 138.301 38.7841C137.91 38.4108 137.858 38.0559 137.876 37.5678C137.9 37.2429 138.087 36.9504 138.356 36.7259C138.625 36.5331 138.957 36.4123 139.298 36.3526C139.325 36.3476 139.352 36.3427 139.379 36.3376C140.093 36.2568 140.817 36.326 141.399 36.7106Z" fill="black"/>
<path d="M63.7002 36.3797C64.8738 36.3797 66.0474 36.3797 67.2566 36.3797C67.2566 36.5858 67.2566 36.7918 67.2566 37.0041C66.3738 37.0131 65.491 37.0221 64.5814 37.0313C64.571 37.6316 64.5607 38.2318 64.55 38.8503C65.3497 38.8503 66.1494 38.8503 66.9733 38.8503C66.9733 39.0384 66.9733 39.2266 66.9733 39.4204C65.7893 39.4338 65.7893 39.4338 64.5814 39.4476C64.571 40.0657 64.5607 40.6839 64.55 41.3208C65.4431 41.3208 66.3363 41.3208 67.2566 41.3208C67.2566 41.5179 67.2566 41.715 67.2566 41.9181C66.083 41.9181 64.9094 41.9181 63.7002 41.9181C63.7002 40.0904 63.7002 38.2628 63.7002 36.3797Z" fill="black"/>
<path d="M35.8154 0C37.3006 0 38.7858 0 40.316 0C40.2554 0.0871498 40.2046 0.158096 40.1317 0.234479C40.1149 0.252239 40.098 0.27 40.0806 0.288299C40.0629 0.30683 40.0451 0.325361 40.0269 0.344453C39.9897 0.38358 39.9525 0.422713 39.9153 0.461852C39.8975 0.480623 39.8796 0.499395 39.8612 0.518735C39.8024 0.580716 39.7444 0.643198 39.6866 0.705875C39.5968 0.803033 39.5061 0.899514 39.4151 0.995812C39.2686 1.15092 39.123 1.30653 38.9804 1.46435C38.831 1.62956 38.6774 1.79156 38.5222 1.95276C38.4415 2.03673 38.3611 2.12072 38.2841 2.20724C38.262 2.23198 38.2399 2.25672 38.2172 2.28222C38.1989 2.30325 38.1806 2.32428 38.1617 2.34595C38.1456 2.3602 38.1295 2.37444 38.1129 2.38912C38.0185 2.38912 38.0185 2.38912 37.9757 2.35527C37.9541 2.3316 37.9541 2.3316 37.932 2.30746C37.9156 2.28982 37.8992 2.27218 37.8824 2.25401C37.865 2.23476 37.8476 2.21551 37.8297 2.19568C37.8115 2.17592 37.7932 2.15616 37.7745 2.13581C37.7191 2.07565 37.6642 2.01524 37.6094 1.95473C37.5799 1.92231 37.5504 1.8899 37.521 1.85748C37.4794 1.81177 37.4379 1.76603 37.3965 1.72024C37.2627 1.57283 37.1244 1.42877 36.9859 1.2846C36.8575 1.15053 36.7321 1.01471 36.6083 0.877446C36.4908 0.747715 36.3698 0.620605 36.2482 0.493773C35.8154 0.0423883 35.8154 0.0423883 35.8154 0Z" fill="black"/>
<path d="M40.6621 0C42.1473 0 43.6325 0 45.1627 0C45.0452 0.135078 44.9277 0.269549 44.8067 0.402145C44.7917 0.418563 44.7767 0.434981 44.7613 0.451896C44.6494 0.57418 44.5358 0.695117 44.4211 0.815426C44.1995 1.04801 43.9788 1.2812 43.7641 1.51865C43.6142 1.68456 43.4595 1.84691 43.304 2.00896C43.1757 2.14279 43.0497 2.27786 42.9281 2.41626C42.7959 2.33274 42.7034 2.24098 42.6055 2.1295C42.5748 2.09516 42.5441 2.06083 42.5133 2.02653C42.4907 2.00121 42.4907 2.00121 42.4676 1.97537C42.4086 1.9099 42.3479 1.8457 42.2869 1.78166C42.0279 1.50995 41.7701 1.23759 41.5194 0.960112C41.4028 0.831616 41.2825 0.705883 41.1617 0.580311C40.6621 0.0602463 40.6621 0.0602463 40.6621 0Z" fill="black"/>
<path d="M45.2886 0.162894C45.3856 0.199362 45.4418 0.23663 45.5074 0.307972C45.5242 0.325995 45.5409 0.344019 45.5582 0.362588C45.5844 0.391408 45.5844 0.391408 45.6112 0.42081C45.6295 0.440583 45.6478 0.460357 45.6666 0.480729C45.7191 0.537546 45.7714 0.594545 45.8236 0.651577C45.8655 0.696851 45.9075 0.742104 45.9495 0.787322C45.9688 0.80818 45.988 0.829038 46.0079 0.850528C46.0785 0.926404 46.1497 1.00185 46.2209 1.07726C46.3675 1.23236 46.5131 1.38797 46.6557 1.5458C46.7873 1.69146 46.9224 1.83447 47.0589 1.97679C47.4917 2.42818 47.4917 2.42818 47.4917 2.47056C46.0584 2.47056 44.6251 2.47056 43.1484 2.47056C43.3599 2.22738 43.3599 2.22738 43.4651 2.11763C43.4893 2.09232 43.5134 2.06702 43.5383 2.04095C43.5514 2.02725 43.5644 2.01356 43.5779 1.99944C43.7882 1.77879 43.9972 1.55727 44.2008 1.332C44.348 1.16921 44.4998 1.00992 44.6524 0.850933C44.8013 0.695515 44.9465 0.537859 45.0901 0.378814C45.1557 0.306394 45.2219 0.234497 45.2886 0.162894Z" fill="black"/>
<path d="M35.6274 0.162894C35.7512 0.198473 35.7979 0.266212 35.8733 0.352938C35.9043 0.387763 35.9353 0.422545 35.9664 0.457292C35.9828 0.4757 35.9993 0.494108 36.0163 0.513074C36.1048 0.610567 36.1966 0.70564 36.2884 0.800897C36.4361 0.954703 36.581 1.11001 36.7232 1.26763C36.838 1.3944 36.9562 1.51862 37.0752 1.64252C37.2135 1.78663 37.3504 1.93145 37.4843 2.0786C37.4975 2.09312 37.5108 2.10765 37.5244 2.12261C37.6284 2.23743 37.7291 2.35395 37.8305 2.47056C36.3973 2.47056 34.964 2.47056 33.4873 2.47056C33.6017 2.33904 33.7158 2.20784 33.8335 2.0786C33.8553 2.05466 33.8553 2.05466 33.8775 2.03024C34.0155 1.87937 34.1574 1.73131 34.2995 1.58329C34.4137 1.46408 34.5259 1.34376 34.6361 1.22171C34.7824 1.05948 34.9335 0.900855 35.0855 0.742569C35.2377 0.583685 35.3859 0.422276 35.5327 0.259613C35.596 0.190043 35.596 0.190043 35.6274 0.162894Z" fill="black"/>
<path d="M40.4741 0.162894C40.6101 0.254916 40.7182 0.350652 40.8223 0.470018C40.8525 0.503945 40.8828 0.537845 40.9131 0.571721C40.9367 0.598067 40.9367 0.598067 40.9606 0.624945C41.0421 0.715251 41.1259 0.803875 41.2098 0.892525C41.2268 0.91059 41.2439 0.928654 41.2615 0.947267C41.3137 1.00257 41.366 1.05785 41.4183 1.11311C41.6277 1.3344 41.8363 1.55597 42.0397 1.78144C42.1222 1.87248 42.2064 1.96214 42.292 2.05103C42.3122 2.07196 42.3324 2.09289 42.3531 2.11445C42.3928 2.15546 42.4325 2.19637 42.4724 2.23719C42.4904 2.25579 42.5084 2.2744 42.527 2.29356C42.5431 2.31005 42.5592 2.32654 42.5757 2.34353C42.6143 2.38912 42.6143 2.38912 42.6457 2.47056C41.2229 2.47056 39.8 2.47056 38.334 2.47056C38.3938 2.38459 38.443 2.31495 38.515 2.2399C38.5313 2.2227 38.5477 2.2055 38.5646 2.18778C38.5819 2.16967 38.5993 2.15156 38.6172 2.1329C38.7496 1.99382 38.8806 1.85409 39.0087 1.71209C39.1729 1.53054 39.3425 1.35304 39.5126 1.17557C39.7689 0.908066 40.0229 0.639037 40.2691 0.36453C40.3335 0.293185 40.3973 0.224578 40.4741 0.162894Z" fill="black"/>
<path d="M101.939 36.3797C102.22 36.3797 102.5 36.3797 102.789 36.3797C102.789 38.2074 102.789 40.0351 102.789 41.9181C102.509 41.9181 102.228 41.9181 101.939 41.9181C101.939 40.0904 101.939 38.2628 101.939 36.3797Z" fill="black"/>
<path fill-rule="evenodd" clip-rule="evenodd" d="M42.7398 2.68775H38.2393C38.2393 2.71104 38.2393 2.72435 38.2408 2.73746C38.2429 2.75492 38.2477 2.77205 38.2591 2.81199L38.2874 2.90254L38.3377 3.06315L38.3749 3.18162L38.4552 3.43817L38.5874 3.86017L38.6332 4.00658L38.6565 4.08102L38.728 4.30941C38.89 4.8268 39.0514 5.34434 39.2126 5.86191L39.3591 6.33204L39.4083 6.49007L39.4331 6.56952L39.5327 6.88927L39.8836 8.01558L39.9119 8.10611L40.0494 8.54746L40.2829 9.29689L40.3946 9.65519L40.4326 9.77723L40.4738 9.9094C40.5368 9.8551 40.5368 9.8551 40.5616 9.79322L40.5859 9.71427L40.6142 9.62358C40.6296 9.57291 40.6451 9.52223 40.6607 9.47161C40.6898 9.37793 40.7188 9.28422 40.7475 9.19046C40.7788 9.08827 40.8103 8.98613 40.8419 8.884C40.8955 8.71076 40.949 8.53749 41.0023 8.36419C41.0785 8.11637 41.155 7.86861 41.2317 7.62089L41.3049 7.3843L41.3235 7.32444L41.4552 6.89831L41.4745 6.83574L41.514 6.70796C41.6338 6.31999 41.7537 5.93205 41.8739 5.54417L42.0848 4.86372L42.2344 4.38066L42.3775 3.91938L42.431 3.74636L42.5057 3.50573L42.5287 3.43105C42.548 3.36946 42.5616 3.32566 42.5748 3.28173C42.6073 3.17364 42.637 3.06471 42.7398 2.68775ZM41.1531 4.53346C41.0969 4.37228 40.9912 4.25997 40.8294 4.16738C40.6383 4.07681 40.4696 4.07317 40.261 4.11817C40.1003 4.19901 40.0019 4.27538 39.9108 4.41511C39.8209 4.58197 39.8044 4.75313 39.8698 4.92925C39.9462 5.06546 40.0631 5.18437 40.2197 5.25334L40.2846 5.26691C40.2479 5.36168 40.2479 5.36168 40.1751 5.63745L40.1751 5.63745C40.1601 5.69441 40.1451 5.75135 40.1299 5.80825L40.1003 5.91976L40.086 5.97427C40.0722 6.02662 40.0626 6.06298 40.0539 6.09956C40.0341 6.18271 40.0191 6.267 39.9698 6.54292H41.0399C41.0374 6.52544 41.0349 6.50795 41.0324 6.49045C41.0216 6.41318 41.0107 6.33586 40.9939 6.25941L40.9789 6.20387L40.9617 6.13969L40.9434 6.0729C40.924 6.00091 40.9046 5.92892 40.885 5.85697L40.8445 5.70736C40.8133 5.59177 40.7821 5.4762 40.7507 5.36066L40.7252 5.26691H40.7881C40.8987 5.20781 40.9849 5.13392 41.0579 5.04134C41.1665 4.86967 41.1975 4.72516 41.1531 4.53346Z" fill="black"/>
</svg>
